<?xml version="1.0" encoding="UTF-8"?>
<!DOCTYPE svg PUBLIC "-//W3C//DTD SVG 1.1//EN" "http://www.w3.org/Graphics/SVG/1.1/DTD/svg11.dtd">
<svg width="172mm" height="86mm" viewBox="0 0 17200 8600" version="1.1" xmlns="http://www.w3.org/2000/svg" stroke-width="28.222" stroke-linejoin="round" xml:space="preserve">
 <path fill="rgb(255,255,255)" stroke="none" d="M 8559,8581 L -20,8581 -20,1 17137,1 17137,8581 8559,8581 Z"/>
 <path fill="none" stroke="rgb(179,179,179)" stroke-linejoin="round" d="M 9255,3749 L 1729,3749 1729,712 16782,712 16782,3749 9255,3749 Z"/>
 <path fill="none" stroke="rgb(179,179,179)" stroke-linejoin="round" d="M 16782,3748 L 1729,3748"/>
 <path fill="none" stroke="rgb(179,179,179)" stroke-linejoin="round" d="M 16782,3140 L 1729,3140"/>
 <path fill="none" stroke="rgb(179,179,179)" stroke-linejoin="round" d="M 16782,2533 L 1729,2533"/>
 <path fill="none" stroke="rgb(179,179,179)" stroke-linejoin="round" d="M 16782,1925 L 1729,1925"/>
 <path fill="none" stroke="rgb(179,179,179)" stroke-linejoin="round" d="M 16782,1318 L 1729,1318"/>
 <path fill="none" stroke="rgb(179,179,179)" stroke-linejoin="round" d="M 16782,710 L 1729,710"/>
 <path fill="none" stroke="rgb(179,179,179)" stroke-linejoin="round" d="M 1729,3898 L 1729,3748"/>
 <path fill="none" stroke="rgb(179,179,179)" stroke-linejoin="round" d="M 1729,3898 L 1729,3748"/>
 <path fill="none" stroke="rgb(179,179,179)" stroke-linejoin="round" d="M 2308,3898 L 2308,3748"/>
 <path fill="none" stroke="rgb(179,179,179)" stroke-linejoin="round" d="M 2308,3898 L 2308,3748"/>
 <path fill="none" stroke="rgb(179,179,179)" stroke-linejoin="round" d="M 2887,3898 L 2887,3748"/>
 <path fill="none" stroke="rgb(179,179,179)" stroke-linejoin="round" d="M 2887,3898 L 2887,3748"/>
 <path fill="none" stroke="rgb(179,179,179)" stroke-linejoin="round" d="M 3466,3898 L 3466,3748"/>
 <path fill="none" stroke="rgb(179,179,179)" stroke-linejoin="round" d="M 3466,3898 L 3466,3748"/>
 <path fill="none" stroke="rgb(179,179,179)" stroke-linejoin="round" d="M 4045,3898 L 4045,3748"/>
 <path fill="none" stroke="rgb(179,179,179)" stroke-linejoin="round" d="M 4045,3898 L 4045,3748"/>
 <path fill="none" stroke="rgb(179,179,179)" stroke-linejoin="round" d="M 4624,3898 L 4624,3748"/>
 <path fill="none" stroke="rgb(179,179,179)" stroke-linejoin="round" d="M 4624,3898 L 4624,3748"/>
 <path fill="none" stroke="rgb(179,179,179)" stroke-linejoin="round" d="M 5203,3898 L 5203,3748"/>
 <path fill="none" stroke="rgb(179,179,179)" stroke-linejoin="round" d="M 5203,3898 L 5203,3748"/>
 <path fill="none" stroke="rgb(179,179,179)" stroke-linejoin="round" d="M 5782,3898 L 5782,3748"/>
 <path fill="none" stroke="rgb(179,179,179)" stroke-linejoin="round" d="M 5782,3898 L 5782,3748"/>
 <path fill="none" stroke="rgb(179,179,179)" stroke-linejoin="round" d="M 6361,3898 L 6361,3748"/>
 <path fill="none" stroke="rgb(179,179,179)" stroke-linejoin="round" d="M 6361,3898 L 6361,3748"/>
 <path fill="none" stroke="rgb(179,179,179)" stroke-linejoin="round" d="M 6940,3898 L 6940,3748"/>
 <path fill="none" stroke="rgb(179,179,179)" stroke-linejoin="round" d="M 6940,3898 L 6940,3748"/>
 <path fill="none" stroke="rgb(179,179,179)" stroke-linejoin="round" d="M 7519,3898 L 7519,3748"/>
 <path fill="none" stroke="rgb(179,179,179)" stroke-linejoin="round" d="M 7519,3898 L 7519,3748"/>
 <path fill="none" stroke="rgb(179,179,179)" stroke-linejoin="round" d="M 8098,3898 L 8098,3748"/>
 <path fill="none" stroke="rgb(179,179,179)" stroke-linejoin="round" d="M 8098,3898 L 8098,3748"/>
 <path fill="none" stroke="rgb(179,179,179)" stroke-linejoin="round" d="M 8676,3898 L 8676,3748"/>
 <path fill="none" stroke="rgb(179,179,179)" stroke-linejoin="round" d="M 8676,3898 L 8676,3748"/>
 <path fill="none" stroke="rgb(179,179,179)" stroke-linejoin="round" d="M 9255,3898 L 9255,3748"/>
 <path fill="none" stroke="rgb(179,179,179)" stroke-linejoin="round" d="M 9255,3898 L 9255,3748"/>
 <path fill="none" stroke="rgb(179,179,179)" stroke-linejoin="round" d="M 9834,3898 L 9834,3748"/>
 <path fill="none" stroke="rgb(179,179,179)" stroke-linejoin="round" d="M 9834,3898 L 9834,3748"/>
 <path fill="none" stroke="rgb(179,179,179)" stroke-linejoin="round" d="M 10413,3898 L 10413,3748"/>
 <path fill="none" stroke="rgb(179,179,179)" stroke-linejoin="round" d="M 10413,3898 L 10413,3748"/>
 <path fill="none" stroke="rgb(179,179,179)" stroke-linejoin="round" d="M 10992,3898 L 10992,3748"/>
 <path fill="none" stroke="rgb(179,179,179)" stroke-linejoin="round" d="M 10992,3898 L 10992,3748"/>
 <path fill="none" stroke="rgb(179,179,179)" stroke-linejoin="round" d="M 11571,3898 L 11571,3748"/>
 <path fill="none" stroke="rgb(179,179,179)" stroke-linejoin="round" d="M 11571,3898 L 11571,3748"/>
 <path fill="none" stroke="rgb(179,179,179)" stroke-linejoin="round" d="M 12150,3898 L 12150,3748"/>
 <path fill="none" stroke="rgb(179,179,179)" stroke-linejoin="round" d="M 12150,3898 L 12150,3748"/>
 <path fill="none" stroke="rgb(179,179,179)" stroke-linejoin="round" d="M 12729,3898 L 12729,3748"/>
 <path fill="none" stroke="rgb(179,179,179)" stroke-linejoin="round" d="M 12729,3898 L 12729,3748"/>
 <path fill="none" stroke="rgb(179,179,179)" stroke-linejoin="round" d="M 13308,3898 L 13308,3748"/>
 <path fill="none" stroke="rgb(179,179,179)" stroke-linejoin="round" d="M 13308,3898 L 13308,3748"/>
 <path fill="none" stroke="rgb(179,179,179)" stroke-linejoin="round" d="M 13887,3898 L 13887,3748"/>
 <path fill="none" stroke="rgb(179,179,179)" stroke-linejoin="round" d="M 13887,3898 L 13887,3748"/>
 <path fill="none" stroke="rgb(179,179,179)" stroke-linejoin="round" d="M 14466,3898 L 14466,3748"/>
 <path fill="none" stroke="rgb(179,179,179)" stroke-linejoin="round" d="M 14466,3898 L 14466,3748"/>
 <path fill="none" stroke="rgb(179,179,179)" stroke-linejoin="round" d="M 15045,3898 L 15045,3748"/>
 <path fill="none" stroke="rgb(179,179,179)" stroke-linejoin="round" d="M 15045,3898 L 15045,3748"/>
 <path fill="none" stroke="rgb(179,179,179)" stroke-linejoin="round" d="M 15624,3898 L 15624,3748"/>
 <path fill="none" stroke="rgb(179,179,179)" stroke-linejoin="round" d="M 15624,3898 L 15624,3748"/>
 <path fill="none" stroke="rgb(179,179,179)" stroke-linejoin="round" d="M 16203,3898 L 16203,3748"/>
 <path fill="none" stroke="rgb(179,179,179)" stroke-linejoin="round" d="M 16203,3898 L 16203,3748"/>
 <path fill="none" stroke="rgb(179,179,179)" stroke-linejoin="round" d="M 16782,3898 L 16782,3748"/>
 <path fill="none" stroke="rgb(179,179,179)" stroke-linejoin="round" d="M 16782,3898 L 16782,3748"/>
 <path fill="none" stroke="rgb(179,179,179)" stroke-linejoin="round" d="M 1729,3748 L 16782,3748"/>
 <path fill="none" stroke="rgb(179,179,179)" stroke-linejoin="round" d="M 1579,3748 L 1729,3748"/>
 <path fill="none" stroke="rgb(179,179,179)" stroke-linejoin="round" d="M 1579,3748 L 1729,3748"/>
 <path fill="none" stroke="rgb(179,179,179)" stroke-linejoin="round" d="M 1579,3140 L 1729,3140"/>
 <path fill="none" stroke="rgb(179,179,179)" stroke-linejoin="round" d="M 1579,3140 L 1729,3140"/>
 <path fill="none" stroke="rgb(179,179,179)" stroke-linejoin="round" d="M 1579,2533 L 1729,2533"/>
 <path fill="none" stroke="rgb(179,179,179)" stroke-linejoin="round" d="M 1579,2533 L 1729,2533"/>
 <path fill="none" stroke="rgb(179,179,179)" stroke-linejoin="round" d="M 1579,1925 L 1729,1925"/>
 <path fill="none" stroke="rgb(179,179,179)" stroke-linejoin="round" d="M 1579,1925 L 1729,1925"/>
 <path fill="none" stroke="rgb(179,179,179)" stroke-linejoin="round" d="M 1579,1318 L 1729,1318"/>
 <path fill="none" stroke="rgb(179,179,179)" stroke-linejoin="round" d="M 1579,1318 L 1729,1318"/>
 <path fill="none" stroke="rgb(179,179,179)" stroke-linejoin="round" d="M 1579,710 L 1729,710"/>
 <path fill="none" stroke="rgb(179,179,179)" stroke-linejoin="round" d="M 1579,710 L 1729,710"/>
 <path fill="none" stroke="rgb(179,179,179)" stroke-linejoin="round" d="M 1729,3748 L 1729,710"/>
 <path fill="rgb(0,69,134)" stroke="none" d="M 11136,3748 L 11426,3748 11426,3705 11136,3705 11136,3748 Z"/>
 <path fill="rgb(0,69,134)" stroke="none" d="M 10557,3748 L 10847,3748 10847,3656 10557,3656 10557,3748 Z"/>
 <path fill="rgb(0,69,134)" stroke="none" d="M 9978,3748 L 10268,3748 10268,3656 9978,3656 9978,3748 Z"/>
 <path fill="rgb(0,69,134)" stroke="none" d="M 8820,3748 L 9110,3748 9110,3535 8820,3535 8820,3748 Z"/>
 <path fill="rgb(0,69,134)" stroke="none" d="M 6505,3748 L 6795,3748 6795,3413 6505,3413 6505,3748 Z"/>
 <path fill="rgb(0,69,134)" stroke="none" d="M 5926,3748 L 6216,3748 6216,3292 5926,3292 5926,3748 Z"/>
 <path fill="rgb(0,69,134)" stroke="none" d="M 5347,3748 L 5637,3748 5637,3019 5347,3019 5347,3748 Z"/>
 <path fill="rgb(0,69,134)" stroke="none" d="M 2452,3748 L 2742,3748 2742,1622 2452,1622 2452,3748 Z"/>
 <path fill="rgb(0,69,134)" stroke="none" d="M 1873,3748 L 2163,3748 2163,1348 1873,1348 1873,3748 Z"/>
 <path fill="rgb(255,66,14)" stroke="none" d="M 12294,3748 L 12584,3748 12584,3747 12294,3747 12294,3748 Z"/>
 <path fill="rgb(255,66,14)" stroke="none" d="M 11715,3748 L 12005,3748 12005,3747 11715,3747 11715,3748 Z"/>
 <path fill="rgb(255,66,14)" stroke="none" d="M 9399,3748 L 9689,3748 9689,3655 9399,3655 9399,3748 Z"/>
 <path fill="rgb(255,66,14)" stroke="none" d="M 8242,3748 L 8532,3748 8532,3481 8242,3481 8242,3748 Z"/>
 <path fill="rgb(255,66,14)" stroke="none" d="M 7663,3748 L 7953,3748 7953,3464 7663,3464 7663,3748 Z"/>
 <path fill="rgb(255,66,14)" stroke="none" d="M 7084,3748 L 7374,3748 7374,3439 7084,3439 7084,3748 Z"/>
 <path fill="rgb(255,66,14)" stroke="none" d="M 4768,3748 L 5058,3748 5058,2951 4768,2951 4768,3748 Z"/>
 <path fill="rgb(255,66,14)" stroke="none" d="M 4189,3748 L 4479,3748 4479,2557 4189,2557 4189,3748 Z"/>
 <path fill="rgb(255,66,14)" stroke="none" d="M 3610,3748 L 3900,3748 3900,1770 3610,1770 3610,3748 Z"/>
 <path fill="rgb(255,66,14)" stroke="none" d="M 3031,3748 L 3321,3748 3321,1723 3031,1723 3031,3748 Z"/>
 <text class="TextShape" transform="translate(2136,5982) rotate(-90) translate(-2136,-5982)"><tspan class="TextParagraph" font-family="Liberation Sans, sans-serif" font-size="353px" font-weight="400"><tspan class="TextPosition" x="2136" y="5982"><tspan fill="rgb(0,0,0)" stroke="none">Actors (0.79)</tspan></tspan></tspan></text>
 <text class="TextShape" transform="translate(2715,6273) rotate(-90) translate(-2715,-6273)"><tspan class="TextParagraph" font-family="Liberation Sans, sans-serif" font-size="353px" font-weight="400"><tspan class="TextPosition" x="2715" y="6273"><tspan fill="rgb(0,0,0)" stroke="none">Metabolic (0.7)</tspan></tspan></tspan></text>
 <text class="TextShape" transform="translate(3294,7596) rotate(-90) translate(-3294,-7596)"><tspan class="TextParagraph" font-family="Liberation Sans, sans-serif" font-size="353px" font-weight="400"><tspan class="TextPosition" x="3294" y="7596"><tspan fill="rgb(0,0,0)" stroke="none">osspr:contains (0.6667)</tspan></tspan></tspan></text>
 <text class="TextShape" transform="translate(3873,7173) rotate(-90) translate(-3873,-7173)"><tspan class="TextParagraph" font-family="Liberation Sans, sans-serif" font-size="353px" font-weight="400"><tspan class="TextPosition" x="3873" y="7173"><tspan fill="rgb(0,0,0)" stroke="none">osspr:within (0.6512)</tspan></tspan></tspan></text>
 <text class="TextShape" transform="translate(4452,8126) rotate(-90) translate(-4452,-8126)"><tspan class="TextParagraph" font-family="Liberation Sans, sans-serif" font-size="353px" font-weight="400"><tspan class="TextPosition" x="4452" y="8126"><tspan fill="rgb(0,0,0)" stroke="none">geop:hasborderwith (0.392)</tspan></tspan></tspan></text>
 <text class="TextShape" transform="translate(5031,7226) rotate(-90) translate(-5031,-7226)"><tspan class="TextParagraph" font-family="Liberation Sans, sans-serif" font-size="353px" font-weight="400"><tspan class="TextPosition" x="5031" y="7226"><tspan fill="rgb(0,0,0)" stroke="none">skos:related (0.2624)</tspan></tspan></tspan></text>
 <text class="TextShape" transform="translate(5610,6194) rotate(-90) translate(-5610,-6194)"><tspan class="TextParagraph" font-family="Liberation Sans, sans-serif" font-size="353px" font-weight="400"><tspan class="TextPosition" x="5610" y="6194"><tspan fill="rgb(0,0,0)" stroke="none">AS2001 (0.24)</tspan></tspan></tspan></text>
 <text class="TextShape" transform="translate(6189,6591) rotate(-90) translate(-6189,-6591)"><tspan class="TextParagraph" font-family="Liberation Sans, sans-serif" font-size="353px" font-weight="400"><tspan class="TextPosition" x="6189" y="6591"><tspan fill="rgb(0,0,0)" stroke="none">Math 1999 (0.15)</tspan></tspan></tspan></text>
 <text class="TextShape" transform="translate(6768,5929) rotate(-90) translate(-6768,-5929)"><tspan class="TextParagraph" font-family="Liberation Sans, sans-serif" font-size="353px" font-weight="400"><tspan class="TextPosition" x="6768" y="5929"><tspan fill="rgb(0,0,0)" stroke="none">WWW (0.11)</tspan></tspan></tspan></text>
 <text class="TextShape" transform="translate(7347,7014) rotate(-90) translate(-7347,-7014)"><tspan class="TextParagraph" font-family="Liberation Sans, sans-serif" font-size="353px" font-weight="400"><tspan class="TextPosition" x="7347" y="7014"><tspan fill="rgb(0,0,0)" stroke="none">foaf:knows (0.1017)</tspan></tspan></tspan></text>
 <text class="TextShape" transform="translate(7926,8496) rotate(-90) translate(-7926,-8496)"><tspan class="TextParagraph" font-family="Liberation Sans, sans-serif" font-size="353px" font-weight="400"><tspan class="TextPosition" x="7926" y="8496"><tspan fill="rgb(0,0,0)" stroke="none">foaf:knows (Last.fm) (0.0932)</tspan></tspan></tspan></text>
 <text class="TextShape" transform="translate(8505,7993) rotate(-90) translate(-8505,-7993)"><tspan class="TextParagraph" font-family="Liberation Sans, sans-serif" font-size="353px" font-weight="400"><tspan class="TextPosition" x="8505" y="7993"><tspan fill="rgb(0,0,0)" stroke="none">skos:exactmatch (0.0878)</tspan></tspan></tspan></text>
 <text class="TextShape" transform="translate(9083,6062) rotate(-90) translate(-9083,-6062)"><tspan class="TextParagraph" font-family="Liberation Sans, sans-serif" font-size="353px" font-weight="400"><tspan class="TextPosition" x="9083" y="6062"><tspan fill="rgb(0,0,0)" stroke="none">Protein (0.07)</tspan></tspan></tspan></text>
 <text class="TextShape" transform="translate(9662,7491) rotate(-90) translate(-9662,-7491)"><tspan class="TextParagraph" font-family="Liberation Sans, sans-serif" font-size="353px" font-weight="400"><tspan class="TextPosition" x="9662" y="7491"><tspan fill="rgb(0,0,0)" stroke="none">skos:narrower (0.0304)</tspan></tspan></tspan></text>
 <text class="TextShape" transform="translate(10241,6168) rotate(-90) translate(-10241,-6168)"><tspan class="TextParagraph" font-family="Liberation Sans, sans-serif" font-size="353px" font-weight="400"><tspan class="TextPosition" x="10241" y="6168"><tspan fill="rgb(0,0,0)" stroke="none">Routers (0.03)</tspan></tspan></tspan></text>
 <text class="TextShape" transform="translate(10820,5903) rotate(-90) translate(-10820,-5903)"><tspan class="TextParagraph" font-family="Liberation Sans, sans-serif" font-size="353px" font-weight="400"><tspan class="TextPosition" x="10820" y="5903"><tspan fill="rgb(0,0,0)" stroke="none">e-mail (0.03)</tspan></tspan></tspan></text>
 <text class="TextShape" transform="translate(11399,6432) rotate(-90) translate(-11399,-6432)"><tspan class="TextParagraph" font-family="Liberation Sans, sans-serif" font-size="353px" font-weight="400"><tspan class="TextPosition" x="11399" y="6432"><tspan fill="rgb(0,0,0)" stroke="none">Gnutella (0.014)</tspan></tspan></tspan></text>
 <text class="TextShape" transform="translate(11978,8152) rotate(-90) translate(-11978,-8152)"><tspan class="TextParagraph" font-family="Liberation Sans, sans-serif" font-size="353px" font-weight="400"><tspan class="TextPosition" x="11978" y="8152"><tspan fill="rgb(0,0,0)" stroke="none">skos:closematch (0.00021)</tspan></tspan></tspan></text>
 <text class="TextShape" transform="translate(12557,8364) rotate(-90) translate(-12557,-8364)"><tspan class="TextParagraph" font-family="Liberation Sans, sans-serif" font-size="353px" font-weight="400"><tspan class="TextPosition" x="12557" y="8364"><tspan fill="rgb(0,0,0)" stroke="none">skos:relatedmatch (0.00014)</tspan></tspan></tspan></text>
 <text class="TextShape" transform="translate(13136,7067) rotate(-90) translate(-13136,-7067)"><tspan class="TextParagraph" font-family="Liberation Sans, sans-serif" font-size="353px" font-weight="400"><tspan class="TextPosition" x="13136" y="7067"><tspan fill="rgb(0,0,0)" stroke="none">gn:parentcountry (0)</tspan></tspan></tspan></text>
 <text class="TextShape" transform="translate(13715,7596) rotate(-90) translate(-13715,-7596)"><tspan class="TextParagraph" font-family="Liberation Sans, sans-serif" font-size="353px" font-weight="400"><tspan class="TextPosition" x="13715" y="7596"><tspan fill="rgb(0,0,0)" stroke="none">skos:hastopconcept (0)</tspan></tspan></tspan></text>
 <text class="TextShape" transform="translate(14294,7147) rotate(-90) translate(-14294,-7147)"><tspan class="TextParagraph" font-family="Liberation Sans, sans-serif" font-size="353px" font-weight="400"><tspan class="TextPosition" x="14294" y="7147"><tspan fill="rgb(0,0,0)" stroke="none">skos:broadmatch (0)</tspan></tspan></tspan></text>
 <text class="TextShape" transform="translate(14873,7305) rotate(-90) translate(-14873,-7305)"><tspan class="TextParagraph" font-family="Liberation Sans, sans-serif" font-size="353px" font-weight="400"><tspan class="TextPosition" x="14873" y="7305"><tspan fill="rgb(0,0,0)" stroke="none">skos:narrowmatch (0)</tspan></tspan></tspan></text>
 <text class="TextShape" transform="translate(15452,6670) rotate(-90) translate(-15452,-6670)"><tspan class="TextParagraph" font-family="Liberation Sans, sans-serif" font-size="353px" font-weight="400"><tspan class="TextPosition" x="15452" y="6670"><tspan fill="rgb(0,0,0)" stroke="none">swrc:affiliation (0)</tspan></tspan></tspan></text>
 <text class="TextShape" transform="translate(16031,7729) rotate(-90) translate(-16031,-7729)"><tspan class="TextParagraph" font-family="Liberation Sans, sans-serif" font-size="353px" font-weight="400"><tspan class="TextPosition" x="16031" y="7729"><tspan fill="rgb(0,0,0)" stroke="none">lexinfo:partOfSpeech (0)</tspan></tspan></tspan></text>
 <text class="TextShape" transform="translate(16610,6750) rotate(-90) translate(-16610,-6750)"><tspan class="TextParagraph" font-family="Liberation Sans, sans-serif" font-size="353px" font-weight="400"><tspan class="TextPosition" x="16610" y="6750"><tspan fill="rgb(0,0,0)" stroke="none">associated tag (0)</tspan></tspan></tspan></text>
 <text class="TextShape"><tspan class="TextParagraph" font-family="Liberation Sans, sans-serif" font-size="353px" font-weight="400"><tspan class="TextPosition" x="1003" y="3867"><tspan fill="rgb(0,0,0)" stroke="none">0.0</tspan></tspan></tspan></text>
 <text class="TextShape"><tspan class="TextParagraph" font-family="Liberation Sans, sans-serif" font-size="353px" font-weight="400"><tspan class="TextPosition" x="1003" y="3259"><tspan fill="rgb(0,0,0)" stroke="none">0.2</tspan></tspan></tspan></text>
 <text class="TextShape"><tspan class="TextParagraph" font-family="Liberation Sans, sans-serif" font-size="353px" font-weight="400"><tspan class="TextPosition" x="1003" y="2652"><tspan fill="rgb(0,0,0)" stroke="none">0.4</tspan></tspan></tspan></text>
 <text class="TextShape"><tspan class="TextParagraph" font-family="Liberation Sans, sans-serif" font-size="353px" font-weight="400"><tspan class="TextPosition" x="1003" y="2044"><tspan fill="rgb(0,0,0)" stroke="none">0.6</tspan></tspan></tspan></text>
 <text class="TextShape"><tspan class="TextParagraph" font-family="Liberation Sans, sans-serif" font-size="353px" font-weight="400"><tspan class="TextPosition" x="1003" y="1437"><tspan fill="rgb(0,0,0)" stroke="none">0.8</tspan></tspan></tspan></text>
 <text class="TextShape"><tspan class="TextParagraph" font-family="Liberation Sans, sans-serif" font-size="353px" font-weight="400"><tspan class="TextPosition" x="1003" y="829"><tspan fill="rgb(0,0,0)" stroke="none">1.0</tspan></tspan></tspan></text>
 <text class="TextShape"><tspan class="TextParagraph" font-family="Liberation Sans, sans-serif" font-size="388px" font-weight="400"><tspan class="TextPosition" x="6575" y="462"><tspan fill="rgb(0,0,0)" stroke="none">Clustering Comparison</tspan></tspan></tspan></text>
 <path fill="rgb(0,69,134)" stroke="none" d="M 848,8397 L 743,8397 743,8186 954,8186 954,8397 848,8397 Z"/>
 <path fill="rgb(255,66,14)" stroke="none" d="M 848,7994 L 743,7994 743,7783 954,7783 954,7994 848,7994 Z"/>
 <text class="TextShape"><tspan class="TextParagraph" font-family="Liberation Sans, sans-serif" font-size="353px" font-weight="400"><tspan class="TextPosition" x="1054" y="8007"><tspan fill="rgb(0,0,0)" stroke="none">Linked Data</tspan></tspan></tspan></text>
 <text class="TextShape"><tspan class="TextParagraph" font-family="Liberation Sans, sans-serif" font-size="353px" font-weight="400"><tspan class="TextPosition" x="1054" y="8410"><tspan fill="rgb(0,0,0)" stroke="none">other networks</tspan></tspan></tspan></text>
 <text class="TextShape" transform="translate(474,5412) rotate(-90) translate(-474,-5412)"><tspan class="TextParagraph" font-family="Liberation Sans, sans-serif" font-size="318px" font-weight="400"><tspan class="TextPosition" x="474" y="5412"><tspan fill="rgb(0,0,0)" stroke="none">average local clusteing coefficient</tspan></tspan></tspan></text>
</svg>