<?xml version="1.0" encoding="UTF-8"?>
<!DOCTYPE svg PUBLIC "-//W3C//DTD SVG 1.1//EN" "http://www.w3.org/Graphics/SVG/1.1/DTD/svg11.dtd">
<svg width="172mm" height="86mm" viewBox="0 0 17200 8600" version="1.1" xmlns="http://www.w3.org/2000/svg" stroke-width="28.222" stroke-linejoin="round" xml:space="preserve">
 <path fill="rgb(255,255,255)" stroke="none" d="M 8551,8561 L -30,8561 -30,1 17132,1 17132,8561 8551,8561 Z"/>
 <path fill="none" stroke="rgb(179,179,179)" stroke-linejoin="round" d="M 9248,3741 L 1719,3741 1719,619 16777,619 16777,3741 9248,3741 Z"/>
 <path fill="none" stroke="rgb(179,179,179)" stroke-linejoin="round" d="M 16777,3740 L 1719,3740"/>
 <path fill="none" stroke="rgb(179,179,179)" stroke-linejoin="round" d="M 16777,2179 L 1719,2179"/>
 <path fill="none" stroke="rgb(179,179,179)" stroke-linejoin="round" d="M 16777,618 L 1719,618"/>
 <path fill="none" stroke="rgb(179,179,179)" stroke-linejoin="round" d="M 1719,3890 L 1719,3740"/>
 <path fill="none" stroke="rgb(179,179,179)" stroke-linejoin="round" d="M 1719,3890 L 1719,3740"/>
 <path fill="none" stroke="rgb(179,179,179)" stroke-linejoin="round" d="M 2298,3890 L 2298,3740"/>
 <path fill="none" stroke="rgb(179,179,179)" stroke-linejoin="round" d="M 2298,3890 L 2298,3740"/>
 <path fill="none" stroke="rgb(179,179,179)" stroke-linejoin="round" d="M 2877,3890 L 2877,3740"/>
 <path fill="none" stroke="rgb(179,179,179)" stroke-linejoin="round" d="M 2877,3890 L 2877,3740"/>
 <path fill="none" stroke="rgb(179,179,179)" stroke-linejoin="round" d="M 3456,3890 L 3456,3740"/>
 <path fill="none" stroke="rgb(179,179,179)" stroke-linejoin="round" d="M 3456,3890 L 3456,3740"/>
 <path fill="none" stroke="rgb(179,179,179)" stroke-linejoin="round" d="M 4035,3890 L 4035,3740"/>
 <path fill="none" stroke="rgb(179,179,179)" stroke-linejoin="round" d="M 4035,3890 L 4035,3740"/>
 <path fill="none" stroke="rgb(179,179,179)" stroke-linejoin="round" d="M 4614,3890 L 4614,3740"/>
 <path fill="none" stroke="rgb(179,179,179)" stroke-linejoin="round" d="M 4614,3890 L 4614,3740"/>
 <path fill="none" stroke="rgb(179,179,179)" stroke-linejoin="round" d="M 5194,3890 L 5194,3740"/>
 <path fill="none" stroke="rgb(179,179,179)" stroke-linejoin="round" d="M 5194,3890 L 5194,3740"/>
 <path fill="none" stroke="rgb(179,179,179)" stroke-linejoin="round" d="M 5773,3890 L 5773,3740"/>
 <path fill="none" stroke="rgb(179,179,179)" stroke-linejoin="round" d="M 5773,3890 L 5773,3740"/>
 <path fill="none" stroke="rgb(179,179,179)" stroke-linejoin="round" d="M 6352,3890 L 6352,3740"/>
 <path fill="none" stroke="rgb(179,179,179)" stroke-linejoin="round" d="M 6352,3890 L 6352,3740"/>
 <path fill="none" stroke="rgb(179,179,179)" stroke-linejoin="round" d="M 6931,3890 L 6931,3740"/>
 <path fill="none" stroke="rgb(179,179,179)" stroke-linejoin="round" d="M 6931,3890 L 6931,3740"/>
 <path fill="none" stroke="rgb(179,179,179)" stroke-linejoin="round" d="M 7510,3890 L 7510,3740"/>
 <path fill="none" stroke="rgb(179,179,179)" stroke-linejoin="round" d="M 7510,3890 L 7510,3740"/>
 <path fill="none" stroke="rgb(179,179,179)" stroke-linejoin="round" d="M 8090,3890 L 8090,3740"/>
 <path fill="none" stroke="rgb(179,179,179)" stroke-linejoin="round" d="M 8090,3890 L 8090,3740"/>
 <path fill="none" stroke="rgb(179,179,179)" stroke-linejoin="round" d="M 8668,3890 L 8668,3740"/>
 <path fill="none" stroke="rgb(179,179,179)" stroke-linejoin="round" d="M 8668,3890 L 8668,3740"/>
 <path fill="none" stroke="rgb(179,179,179)" stroke-linejoin="round" d="M 9247,3890 L 9247,3740"/>
 <path fill="none" stroke="rgb(179,179,179)" stroke-linejoin="round" d="M 9247,3890 L 9247,3740"/>
 <path fill="none" stroke="rgb(179,179,179)" stroke-linejoin="round" d="M 9826,3890 L 9826,3740"/>
 <path fill="none" stroke="rgb(179,179,179)" stroke-linejoin="round" d="M 9826,3890 L 9826,3740"/>
 <path fill="none" stroke="rgb(179,179,179)" stroke-linejoin="round" d="M 10405,3890 L 10405,3740"/>
 <path fill="none" stroke="rgb(179,179,179)" stroke-linejoin="round" d="M 10405,3890 L 10405,3740"/>
 <path fill="none" stroke="rgb(179,179,179)" stroke-linejoin="round" d="M 10985,3890 L 10985,3740"/>
 <path fill="none" stroke="rgb(179,179,179)" stroke-linejoin="round" d="M 10985,3890 L 10985,3740"/>
 <path fill="none" stroke="rgb(179,179,179)" stroke-linejoin="round" d="M 11564,3890 L 11564,3740"/>
 <path fill="none" stroke="rgb(179,179,179)" stroke-linejoin="round" d="M 11564,3890 L 11564,3740"/>
 <path fill="none" stroke="rgb(179,179,179)" stroke-linejoin="round" d="M 12143,3890 L 12143,3740"/>
 <path fill="none" stroke="rgb(179,179,179)" stroke-linejoin="round" d="M 12143,3890 L 12143,3740"/>
 <path fill="none" stroke="rgb(179,179,179)" stroke-linejoin="round" d="M 12722,3890 L 12722,3740"/>
 <path fill="none" stroke="rgb(179,179,179)" stroke-linejoin="round" d="M 12722,3890 L 12722,3740"/>
 <path fill="none" stroke="rgb(179,179,179)" stroke-linejoin="round" d="M 13301,3890 L 13301,3740"/>
 <path fill="none" stroke="rgb(179,179,179)" stroke-linejoin="round" d="M 13301,3890 L 13301,3740"/>
 <path fill="none" stroke="rgb(179,179,179)" stroke-linejoin="round" d="M 13881,3890 L 13881,3740"/>
 <path fill="none" stroke="rgb(179,179,179)" stroke-linejoin="round" d="M 13881,3890 L 13881,3740"/>
 <path fill="none" stroke="rgb(179,179,179)" stroke-linejoin="round" d="M 14460,3890 L 14460,3740"/>
 <path fill="none" stroke="rgb(179,179,179)" stroke-linejoin="round" d="M 14460,3890 L 14460,3740"/>
 <path fill="none" stroke="rgb(179,179,179)" stroke-linejoin="round" d="M 15039,3890 L 15039,3740"/>
 <path fill="none" stroke="rgb(179,179,179)" stroke-linejoin="round" d="M 15039,3890 L 15039,3740"/>
 <path fill="none" stroke="rgb(179,179,179)" stroke-linejoin="round" d="M 15618,3890 L 15618,3740"/>
 <path fill="none" stroke="rgb(179,179,179)" stroke-linejoin="round" d="M 15618,3890 L 15618,3740"/>
 <path fill="none" stroke="rgb(179,179,179)" stroke-linejoin="round" d="M 16197,3890 L 16197,3740"/>
 <path fill="none" stroke="rgb(179,179,179)" stroke-linejoin="round" d="M 16197,3890 L 16197,3740"/>
 <path fill="none" stroke="rgb(179,179,179)" stroke-linejoin="round" d="M 16777,3890 L 16777,3740"/>
 <path fill="none" stroke="rgb(179,179,179)" stroke-linejoin="round" d="M 16777,3890 L 16777,3740"/>
 <path fill="none" stroke="rgb(179,179,179)" stroke-linejoin="round" d="M 1719,3740 L 16777,3740"/>
 <path fill="none" stroke="rgb(179,179,179)" stroke-linejoin="round" d="M 1569,3740 L 1719,3740"/>
 <path fill="none" stroke="rgb(179,179,179)" stroke-linejoin="round" d="M 1569,3740 L 1719,3740"/>
 <path fill="none" stroke="rgb(179,179,179)" stroke-linejoin="round" d="M 1569,2179 L 1719,2179"/>
 <path fill="none" stroke="rgb(179,179,179)" stroke-linejoin="round" d="M 1569,2179 L 1719,2179"/>
 <path fill="none" stroke="rgb(179,179,179)" stroke-linejoin="round" d="M 1569,618 L 1719,618"/>
 <path fill="none" stroke="rgb(179,179,179)" stroke-linejoin="round" d="M 1569,618 L 1719,618"/>
 <path fill="none" stroke="rgb(179,179,179)" stroke-linejoin="round" d="M 1719,3740 L 1719,618"/>
 <path fill="rgb(0,69,134)" stroke="none" d="M 8813,3740 L 9102,3740 9102,3041 8813,3041 8813,3740 Z"/>
 <path fill="rgb(0,69,134)" stroke="none" d="M 8234,3740 L 8524,3740 8524,3022 8234,3022 8234,3740 Z"/>
 <path fill="rgb(0,69,134)" stroke="none" d="M 6497,3740 L 6786,3740 6786,2951 6497,2951 6497,3740 Z"/>
 <path fill="rgb(0,69,134)" stroke="none" d="M 4759,3740 L 5049,3740 5049,2890 4759,2890 4759,3740 Z"/>
 <path fill="rgb(0,69,134)" stroke="none" d="M 4180,3740 L 4470,3740 4470,2768 4180,2768 4180,3740 Z"/>
 <path fill="rgb(0,69,134)" stroke="none" d="M 3601,3740 L 3890,3740 3890,2648 3601,2648 3601,3740 Z"/>
 <path fill="rgb(0,69,134)" stroke="none" d="M 3022,3740 L 3311,3740 3311,2440 3022,2440 3022,3740 Z"/>
 <path fill="rgb(0,69,134)" stroke="none" d="M 2442,3740 L 2732,3740 2732,2374 2442,2374 2442,3740 Z"/>
 <path fill="rgb(0,69,134)" stroke="none" d="M 1863,3740 L 2153,3740 2153,953 1863,953 1863,3740 Z"/>
 <path fill="rgb(255,66,14)" stroke="none" d="M 16342,3740 L 16632,3740 16632,3473 16342,3473 16342,3740 Z"/>
 <path fill="rgb(255,66,14)" stroke="none" d="M 15763,3740 L 16053,3740 16053,3443 15763,3443 15763,3740 Z"/>
 <path fill="rgb(255,66,14)" stroke="none" d="M 15184,3740 L 15473,3740 15473,3443 15184,3443 15184,3740 Z"/>
 <path fill="rgb(255,66,14)" stroke="none" d="M 14605,3740 L 14894,3740 14894,3412 14605,3412 14605,3740 Z"/>
 <path fill="rgb(255,66,14)" stroke="none" d="M 14025,3740 L 14315,3740 14315,3316 14025,3316 14025,3740 Z"/>
 <path fill="rgb(255,66,14)" stroke="none" d="M 13446,3740 L 13736,3740 13736,3315 13446,3315 13446,3740 Z"/>
 <path fill="rgb(255,66,14)" stroke="none" d="M 12867,3740 L 13157,3740 13157,3296 12867,3296 12867,3740 Z"/>
 <path fill="rgb(255,66,14)" stroke="none" d="M 12288,3740 L 12577,3740 12577,3293 12288,3293 12288,3740 Z"/>
 <path fill="rgb(255,66,14)" stroke="none" d="M 11709,3740 L 11998,3740 11998,3270 11709,3270 11709,3740 Z"/>
 <path fill="rgb(255,66,14)" stroke="none" d="M 11129,3740 L 11419,3740 11419,3270 11129,3270 11129,3740 Z"/>
 <path fill="rgb(255,66,14)" stroke="none" d="M 10550,3740 L 10840,3740 10840,3256 10550,3256 10550,3740 Z"/>
 <path fill="rgb(255,66,14)" stroke="none" d="M 9971,3740 L 10261,3740 10261,3089 9971,3089 9971,3740 Z"/>
 <path fill="rgb(255,66,14)" stroke="none" d="M 9392,3740 L 9681,3740 9681,3072 9392,3072 9392,3740 Z"/>
 <path fill="rgb(255,66,14)" stroke="none" d="M 7655,3740 L 7945,3740 7945,3021 7655,3021 7655,3740 Z"/>
 <path fill="rgb(255,66,14)" stroke="none" d="M 7076,3740 L 7366,3740 7366,3001 7076,3001 7076,3740 Z"/>
 <path fill="rgb(255,66,14)" stroke="none" d="M 5918,3740 L 6207,3740 6207,2903 5918,2903 5918,3740 Z"/>
 <path fill="rgb(255,66,14)" stroke="none" d="M 5338,3740 L 5628,3740 5628,2896 5338,2896 5338,3740 Z"/>
 <text class="TextShape" transform="translate(2126,5683) rotate(-90) translate(-2126,-5683)"><tspan class="TextParagraph" font-family="Liberation Sans, sans-serif" font-size="353px" font-weight="400"><tspan class="TextPosition" x="2126" y="5683"><tspan fill="rgb(0,0,0)" stroke="none">Actors (61)</tspan></tspan></tspan></text>
 <text class="TextShape" transform="translate(2705,5736) rotate(-90) translate(-2705,-5736)"><tspan class="TextParagraph" font-family="Liberation Sans, sans-serif" font-size="353px" font-weight="400"><tspan class="TextPosition" x="2705" y="5736"><tspan fill="rgb(0,0,0)" stroke="none">WWW (7.5)</tspan></tspan></tspan></text>
 <text class="TextShape" transform="translate(3284,5869) rotate(-90) translate(-3284,-5869)"><tspan class="TextParagraph" font-family="Liberation Sans, sans-serif" font-size="353px" font-weight="400"><tspan class="TextPosition" x="3284" y="5869"><tspan fill="rgb(0,0,0)" stroke="none">Protein (6.8)</tspan></tspan></tspan></text>
 <text class="TextShape" transform="translate(3864,6107) rotate(-90) translate(-3864,-6107)"><tspan class="TextParagraph" font-family="Liberation Sans, sans-serif" font-size="353px" font-weight="400"><tspan class="TextPosition" x="3864" y="6107"><tspan fill="rgb(0,0,0)" stroke="none">Math 1999 (5)</tspan></tspan></tspan></text>
 <text class="TextShape" transform="translate(4443,6186) rotate(-90) translate(-4443,-6186)"><tspan class="TextParagraph" font-family="Liberation Sans, sans-serif" font-size="353px" font-weight="400"><tspan class="TextPosition" x="4443" y="6186"><tspan fill="rgb(0,0,0)" stroke="none">AS2001 (4.19)</tspan></tspan></tspan></text>
 <text class="TextShape" transform="translate(5022,6054) rotate(-90) translate(-5022,-6054)"><tspan class="TextParagraph" font-family="Liberation Sans, sans-serif" font-size="353px" font-weight="400"><tspan class="TextPosition" x="5022" y="6054"><tspan fill="rgb(0,0,0)" stroke="none">Gnutella (3.5)</tspan></tspan></tspan></text>
 <text class="TextShape" transform="translate(5601,8065) rotate(-90) translate(-5601,-8065)"><tspan class="TextParagraph" font-family="Liberation Sans, sans-serif" font-size="353px" font-weight="400"><tspan class="TextPosition" x="5601" y="8065"><tspan fill="rgb(0,0,0)" stroke="none">geop:hasBorderWith (3.47)</tspan></tspan></tspan></text>
 <text class="TextShape" transform="translate(6180,6980) rotate(-90) translate(-6180,-6980)"><tspan class="TextParagraph" font-family="Liberation Sans, sans-serif" font-size="353px" font-weight="400"><tspan class="TextPosition" x="6180" y="6980"><tspan fill="rgb(0,0,0)" stroke="none">osspr:within (3.434)</tspan></tspan></tspan></text>
 <text class="TextShape" transform="translate(6760,6265) rotate(-90) translate(-6760,-6265)"><tspan class="TextParagraph" font-family="Liberation Sans, sans-serif" font-size="353px" font-weight="400"><tspan class="TextPosition" x="6760" y="6265"><tspan fill="rgb(0,0,0)" stroke="none">Metabolic (3.2)</tspan></tspan></tspan></text>
 <text class="TextShape" transform="translate(7339,8303) rotate(-90) translate(-7339,-8303)"><tspan class="TextParagraph" font-family="Liberation Sans, sans-serif" font-size="353px" font-weight="400"><tspan class="TextPosition" x="7339" y="8303"><tspan fill="rgb(0,0,0)" stroke="none">foaf:knows (Last.fm) (2.973)</tspan></tspan></tspan></text>
 <text class="TextShape" transform="translate(7918,7033) rotate(-90) translate(-7918,-7033)"><tspan class="TextParagraph" font-family="Liberation Sans, sans-serif" font-size="353px" font-weight="400"><tspan class="TextPosition" x="7918" y="7033"><tspan fill="rgb(0,0,0)" stroke="none">skos:related (2.886)</tspan></tspan></tspan></text>
 <text class="TextShape" transform="translate(8497,5895) rotate(-90) translate(-8497,-5895)"><tspan class="TextParagraph" font-family="Liberation Sans, sans-serif" font-size="353px" font-weight="400"><tspan class="TextPosition" x="8497" y="5895"><tspan fill="rgb(0,0,0)" stroke="none">e-mail (2.88)</tspan></tspan></tspan></text>
 <text class="TextShape" transform="translate(9075,5974) rotate(-90) translate(-9075,-5974)"><tspan class="TextParagraph" font-family="Liberation Sans, sans-serif" font-size="353px" font-weight="400"><tspan class="TextPosition" x="9075" y="5974"><tspan fill="rgb(0,0,0)" stroke="none">Routers (2.8)</tspan></tspan></tspan></text>
 <text class="TextShape" transform="translate(9655,6821) rotate(-90) translate(-9655,-6821)"><tspan class="TextParagraph" font-family="Liberation Sans, sans-serif" font-size="353px" font-weight="400"><tspan class="TextPosition" x="9655" y="6821"><tspan fill="rgb(0,0,0)" stroke="none">foaf:knows (2.676)</tspan></tspan></tspan></text>
 <text class="TextShape" transform="translate(10234,7403) rotate(-90) translate(-10234,-7403)"><tspan class="TextParagraph" font-family="Liberation Sans, sans-serif" font-size="353px" font-weight="400"><tspan class="TextPosition" x="10234" y="7403"><tspan fill="rgb(0,0,0)" stroke="none">osspr:contains (2.611)</tspan></tspan></tspan></text>
 <text class="TextShape" transform="translate(10813,7800) rotate(-90) translate(-10813,-7800)"><tspan class="TextParagraph" font-family="Liberation Sans, sans-serif" font-size="353px" font-weight="400"><tspan class="TextPosition" x="10813" y="7800"><tspan fill="rgb(0,0,0)" stroke="none">skos:relatedMatch (2.04)</tspan></tspan></tspan></text>
 <text class="TextShape" transform="translate(11392,7112) rotate(-90) translate(-11392,-7112)"><tspan class="TextParagraph" font-family="Liberation Sans, sans-serif" font-size="353px" font-weight="400"><tspan class="TextPosition" x="11392" y="7112"><tspan fill="rgb(0,0,0)" stroke="none">gn:parentCountry (2)</tspan></tspan></tspan></text>
 <text class="TextShape" transform="translate(11971,8382) rotate(-90) translate(-11971,-8382)"><tspan class="TextParagraph" font-family="Liberation Sans, sans-serif" font-size="353px" font-weight="400"><tspan class="TextPosition" x="11971" y="8382"><tspan fill="rgb(0,0,0)" stroke="none">lexinfo:partOfSpeech (1.999)</tspan></tspan></tspan></text>
 <text class="TextShape" transform="translate(12551,8382) rotate(-90) translate(-12551,-8382)"><tspan class="TextParagraph" font-family="Liberation Sans, sans-serif" font-size="353px" font-weight="400"><tspan class="TextPosition" x="12551" y="8382"><tspan fill="rgb(0,0,0)" stroke="none">skos:hasTopConcept (1.933)</tspan></tspan></tspan></text>
 <text class="TextShape" transform="translate(13130,7324) rotate(-90) translate(-13130,-7324)"><tspan class="TextParagraph" font-family="Liberation Sans, sans-serif" font-size="353px" font-weight="400"><tspan class="TextPosition" x="13130" y="7324"><tspan fill="rgb(0,0,0)" stroke="none">swrc:affiliation (1.923)</tspan></tspan></tspan></text>
 <text class="TextShape" transform="translate(13709,7112) rotate(-90) translate(-13709,-7112)"><tspan class="TextParagraph" font-family="Liberation Sans, sans-serif" font-size="353px" font-weight="400"><tspan class="TextPosition" x="13709" y="7112"><tspan fill="rgb(0,0,0)" stroke="none">skos:narrower (1.87)</tspan></tspan></tspan></text>
 <text class="TextShape" transform="translate(14288,7959) rotate(-90) translate(-14288,-7959)"><tspan class="TextParagraph" font-family="Liberation Sans, sans-serif" font-size="353px" font-weight="400"><tspan class="TextPosition" x="14288" y="7959"><tspan fill="rgb(0,0,0)" stroke="none">tag:associatedTag (1.869)</tspan></tspan></tspan></text>
 <text class="TextShape" transform="translate(14867,7615) rotate(-90) translate(-14867,-7615)"><tspan class="TextParagraph" font-family="Liberation Sans, sans-serif" font-size="353px" font-weight="400"><tspan class="TextPosition" x="14867" y="7615"><tspan fill="rgb(0,0,0)" stroke="none">skos:exactMatch (1.62)</tspan></tspan></tspan></text>
 <text class="TextShape" transform="translate(15447,7800) rotate(-90) translate(-15447,-7800)"><tspan class="TextParagraph" font-family="Liberation Sans, sans-serif" font-size="353px" font-weight="400"><tspan class="TextPosition" x="15447" y="7800"><tspan fill="rgb(0,0,0)" stroke="none">skos:broadMatch (1.549)</tspan></tspan></tspan></text>
 <text class="TextShape" transform="translate(16026,7774) rotate(-90) translate(-16026,-7774)"><tspan class="TextParagraph" font-family="Liberation Sans, sans-serif" font-size="353px" font-weight="400"><tspan class="TextPosition" x="16026" y="7774"><tspan fill="rgb(0,0,0)" stroke="none">skos:closeMatch (1.549)</tspan></tspan></tspan></text>
 <text class="TextShape" transform="translate(16605,7959) rotate(-90) translate(-16605,-7959)"><tspan class="TextParagraph" font-family="Liberation Sans, sans-serif" font-size="353px" font-weight="400"><tspan class="TextPosition" x="16605" y="7959"><tspan fill="rgb(0,0,0)" stroke="none">skos:narrowMatch (1.481)</tspan></tspan></tspan></text>
 <text class="TextShape"><tspan class="TextParagraph" font-family="Liberation Sans, sans-serif" font-size="353px" font-weight="400"><tspan class="TextPosition" x="1284" y="3859"><tspan fill="rgb(0,0,0)" stroke="none">1</tspan></tspan></tspan></text>
 <text class="TextShape"><tspan class="TextParagraph" font-family="Liberation Sans, sans-serif" font-size="353px" font-weight="400"><tspan class="TextPosition" x="1099" y="2298"><tspan fill="rgb(0,0,0)" stroke="none">10</tspan></tspan></tspan></text>
 <text class="TextShape"><tspan class="TextParagraph" font-family="Liberation Sans, sans-serif" font-size="353px" font-weight="400"><tspan class="TextPosition" x="913" y="737"><tspan fill="rgb(0,0,0)" stroke="none">100</tspan></tspan></tspan></text>
 <text class="TextShape"><tspan class="TextParagraph" font-family="Liberation Sans, sans-serif" font-size="388px" font-weight="400"><tspan class="TextPosition" x="6805" y="462"><tspan fill="rgb(0,0,0)" stroke="none">Degree Comparison</tspan></tspan></tspan></text>
 <path fill="rgb(0,69,134)" stroke="none" d="M 818,8159 L 713,8159 713,7948 924,7948 924,8159 818,8159 Z"/>
 <path fill="rgb(255,66,14)" stroke="none" d="M 818,7756 L 713,7756 713,7545 924,7545 924,7756 818,7756 Z"/>
 <text class="TextShape"><tspan class="TextParagraph" font-family="Liberation Sans, sans-serif" font-size="353px" font-weight="400"><tspan class="TextPosition" x="1024" y="7769"><tspan fill="rgb(0,0,0)" stroke="none">Linked Data</tspan></tspan></tspan></text>
 <text class="TextShape"><tspan class="TextParagraph" font-family="Liberation Sans, sans-serif" font-size="353px" font-weight="400"><tspan class="TextPosition" x="1024" y="8172"><tspan fill="rgb(0,0,0)" stroke="none">other networks</tspan></tspan></tspan></text>
 <text class="TextShape" transform="translate(484,5570) rotate(-90) translate(-484,-5570)"><tspan class="TextParagraph" font-family="Liberation Sans, sans-serif" font-size="318px" font-weight="400"><tspan class="TextPosition" x="484" y="5570"><tspan fill="rgb(0,0,0)" stroke="none">average degree (logarithmic scale)</tspan></tspan></tspan></text>
</svg>